# Apple ModelIO OBJ File: model
mtllib model.mtl
g 
v 0.30111 0.071282 -0.0932908
v 0.307066 0.0816124 0.0649588
v 0.303174 -0.0779908 0.075524
v 0.29722 -0.0883214 -0.0827256
v -0.0354076 -0.0689324 0.0876726
v -0.0315166 0.090671 0.0771074
v -0.037471 0.0803404 -0.0811422
v -0.041362 -0.0792628 -0.070577
vn 0.999 -0.0267275 -0.0358447
vn -0.999 0.0267276 0.0358447
vn -0.0243186 -0.997521 0.0660323
vn 0.0243186 0.997521 -0.0660324
vn -0.0375209 -0.0650943 -0.997173
vn 0.0375209 0.0650944 0.997173
vt 0.0293318 0.0892174
vt 0.0363623 0.0855384
vt 0.0326531 0.0784503
vt 0.0256226 0.0821292
vt -0.0326531 0.0784503
vt -0.0363622 0.0855384
vt -0.0293318 0.0892174
vt -0.0256226 0.0821292
vt -0.0183233 -0.0369329
vt -0.0229908 -0.0532235
vt -0.0306188 -0.051038
vt -0.0259513 -0.0347475
vt 0.0306188 -0.051038
vt 0.0229908 -0.0532235
vt 0.0183233 -0.0369329
vt 0.0259513 -0.0347475
vt -0.10186 -0.009781
vt -0.108878 -0.00593901
vt -0.100739 0.00892496
vt -0.0937222 0.00508302
vt 0.100739 0.00892496
vt 0.108878 -0.00593901
vt 0.10186 -0.009781
vt 0.0937222 0.00508302
usemtl material_1
f 1/1/1 2/2/1 3/3/1 4/4/1 
f 5/5/2 6/6/2 7/7/2 8/8/2 
f 3/9/3 5/10/3 8/11/3 4/12/3 
f 7/13/4 6/14/4 2/15/4 1/16/4 
f 8/17/5 7/18/5 1/19/5 4/20/5 
f 2/21/6 6/22/6 5/23/6 3/24/6 
s off
g _1
v -0.022198 -0.198741 0.00666488
v -0.022198 -0.171947 0.106665
v -0.422198 0.00125861 0.0066649
v -0.022198 -0.0987414 0.17987
v -0.022198 0.00125861 0.206664
v -0.022198 0.101259 0.17987
v -0.022198 0.174464 0.106665
v -0.022198 0.201258 0.00666494
v -0.022198 0.174464 -0.093335
v -0.022198 0.101259 -0.16654
v -0.022198 0.00125861 -0.193335
v -0.022198 -0.0987414 -0.16654
v -0.022198 -0.171947 -0.093335
vn -0.434898 -0.869797 0.233061
vn -0.434898 -0.636735 0.636735
vn -0.434898 -0.233061 0.869797
vn -0.434898 0.233061 0.869797
vn -0.434898 0.636735 0.636735
vn -0.434898 0.869797 0.233061
vn -0.434898 0.869797 -0.233061
vn -0.434898 0.636735 -0.636735
vn -0.434898 0.233061 -0.869797
vn -0.434898 -0.233061 -0.869797
vn -0.434898 -0.636735 -0.636735
vn -0.434898 -0.869797 -0.233061
vn 1 1.19209e-07 -7.01827e-08
vt -0.0209036 -0.0819882
vt -0.0159902 -0.0836171
vt -0.025436 -0.103885
vt 0.0612338 -0.0685619
vt 0.0663462 -0.067751
vt 0.0672692 -0.0900927
vt 0.0995104 -0.0147476
vt 0.104022 -0.0122095
vt 0.112656 -0.032836
vt 0.0952039 0.0167956
vt 0.0994181 0.0198014
vt 0.110208 0.000216305
vt 0.0719018 0.0193271
vt 0.0762582 0.0221229
vt 0.086076 0.00203282
vt 0.0358399 0.00535476
vt 0.0405723 0.00745225
vt 0.0472058 -0.0139018
vt -0.00979302 -0.00819337
vt -0.00470514 -0.00724018
vt -0.00315955 -0.0295475
vt -0.0558621 -0.00854611
vt -0.0507051 -0.00899363
vt -0.0552037 -0.0308971
vt -0.0895001 0.000820637
vt -0.0846187 -0.000901699
vt -0.0944497 -0.0209854
vt -0.104571 0.00385594
vt -0.100091 0.00126314
vt -0.113456 -0.0166637
vt -0.101469 -0.0116035
vt -0.0972431 -0.0145934
vt -0.112185 -0.0312289
vt -0.0777652 -0.0461136
vt -0.0734237 -0.0489324
vt -0.0876893 -0.0661514
vt 0.0304219 0.0769999
vt 0.0295709 0.0821059
vt 0.0313869 0.0869533
vt 0.0353833 0.0902432
vt 0.0404892 0.0910942
vt 0.0453366 0.0892782
vt 0.0486265 0.0852818
vt 0.0494775 0.0801759
vt 0.0476615 0.0753285
vt 0.0436651 0.0720385
vt 0.0385592 0.0711876
vt 0.0337118 0.0730035
usemtl material_2
f 9/25/7 10/26/7 11/27/7 
f 10/28/8 12/29/8 11/30/8 
f 12/31/9 13/32/9 11/33/9 
f 13/34/10 14/35/10 11/36/10 
f 14/37/11 15/38/11 11/39/11 
f 15/40/12 16/41/12 11/42/12 
f 16/43/13 17/44/13 11/45/13 
f 17/46/14 18/47/14 11/48/14 
f 18/49/15 19/50/15 11/51/15 
f 19/52/16 20/53/16 11/54/16 
f 20/55/17 21/56/17 11/57/17 
f 21/58/18 9/59/18 11/60/18 
f 21/61/19 20/62/19 19/63/19 18/64/19 17/65/19 16/66/19 15/67/19 14/68/19 13/69/19 12/70/19 10/71/19 9/72/19 
s off
